solid example1.stl
facet normal -0.0 0.0 1.0
outer loop
vertex -32.400001525878906 33.400001525878906 65.64265441894531
vertex -32.400001525878906 -19.600000381469727 65.64265441894531
vertex 41.0 33.400001525878906 65.64265441894531
endloop
endfacet
facet normal -0.0 0.0 1.0
outer loop
vertex 41.0 33.400001525878906 65.64265441894531
vertex -32.400001525878906 -19.600000381469727 65.64265441894531
vertex 41.0 -19.600000381469727 65.64265441894531
endloop
endfacet
facet normal 0.0 0.0 -1.0
outer loop
vertex -32.400001525878906 -19.600000381469727 0.0
vertex -32.400001525878906 33.400001525878906 0.0
vertex 41.0 -19.600000381469727 0.0
endloop
endfacet
facet normal 0.0 0.0 -1.0
outer loop
vertex 41.0 -19.600000381469727 0.0
vertex -32.400001525878906 33.400001525878906 0.0
vertex 41.0 33.400001525878906 0.0
endloop
endfacet
facet normal -0.0 -1.0 -0.0
outer loop
vertex 41.0 -19.600000381469727 65.64265441894531
vertex -32.400001525878906 -19.600000381469727 65.64265441894531
vertex 41.0 -19.600000381469727 0.0
endloop
endfacet
facet normal -0.0 -1.0 -0.0
outer loop
vertex 41.0 -19.600000381469727 0.0
vertex -32.400001525878906 -19.600000381469727 65.64265441894531
vertex -32.400001525878906 -19.600000381469727 0.0
endloop
endfacet
facet normal -1.0 0.0 -0.0
outer loop
vertex -32.400001525878906 -19.600000381469727 65.64265441894531
vertex -32.400001525878906 33.400001525878906 65.64265441894531
vertex -32.400001525878906 -19.600000381469727 0.0
endloop
endfacet
facet normal -1.0 0.0 0.0
outer loop
vertex -32.400001525878906 -19.600000381469727 0.0
vertex -32.400001525878906 33.400001525878906 65.64265441894531
vertex -32.400001525878906 33.400001525878906 0.0
endloop
endfacet
facet normal -0.0 1.0 0.0
outer loop
vertex -32.400001525878906 33.400001525878906 65.64265441894531
vertex 41.0 33.400001525878906 65.64265441894531
vertex -32.400001525878906 33.400001525878906 0.0
endloop
endfacet
facet normal -0.0 1.0 0.0
outer loop
vertex -32.400001525878906 33.400001525878906 0.0
vertex 41.0 33.400001525878906 65.64265441894531
vertex 41.0 33.400001525878906 0.0
endloop
endfacet
facet normal 1.0 0.0 0.0
outer loop
vertex 41.0 33.400001525878906 65.64265441894531
vertex 41.0 -19.600000381469727 65.64265441894531
vertex 41.0 33.400001525878906 0.0
endloop
endfacet
facet normal 1.0 0.0 0.0
outer loop
vertex 41.0 33.400001525878906 0.0
vertex 41.0 -19.600000381469727 65.64265441894531
vertex 41.0 -19.600000381469727 0.0
endloop
endfacet
endsolid example1.stl
